<?xml version="1.0" encoding="UTF-8"?>
<svg id="Layer_1" data-name="Layer 1" xmlns="http://www.w3.org/2000/svg" viewBox="0 0 367.87 74.74">
  <defs>
    <style>
      .cls-1, .cls-2, .cls-3 {
        stroke-width: 0px;
      }

      .cls-2 {
        fill: #fc0;
      }

      .cls-3 {
        fill: #00a86b;
      }
    </style>
  </defs>
  <g>
    <g>
      <polygon class="cls-3" points="21.85 68.66 21.85 53.29 53.39 53.29 53.39 21.75 68.76 21.75 68.76 68.66 21.85 68.66"/>
      <polygon class="cls-2" points="6.48 53.29 6.48 6.39 53.39 6.39 53.39 21.75 21.85 21.75 21.85 53.29 6.48 53.29"/>
    </g>
    <polygon class="cls-3" points="68.76 6.39 68.76 15.91 59.22 15.91 68.75 6.39 68.76 6.39"/>
    <g>
      <polygon class="cls-3" points="47.62 27.52 47.62 47.52 27.63 47.52 47.62 27.52"/>
      <polygon class="cls-2" points="47.62 27.52 27.63 47.52 27.62 47.52 27.62 27.52 47.62 27.52"/>
    </g>
    <polygon class="cls-2" points="68.75 6.39 59.22 15.91 59.22 6.39 68.75 6.39"/>
    <polygon class="cls-3" points="16.01 59.13 16.01 68.66 6.48 68.66 16.01 59.13 16.01 59.13"/>
    <polygon class="cls-2" points="16.01 59.13 6.48 68.66 6.48 59.13 16.01 59.13"/>
  </g>
  <g>
    <g>
      <path class="cls-1" d="m210.49,54.11h9.16c1.79,0,2.48.17,3.03.75.49.51.68,1.24.68,2.6,0,1.67-.22,2.37-.9,2.91-.56.44-1.28.63-2.5.63h-8.1v4.46h-1.36v-11.35Zm8.46,5.75c2.45,0,3-.43,3-2.31s-.54-2.3-2.72-2.3h-7.37v4.61h7.1Z"/>
      <path class="cls-1" d="m232.76,54.11h11.3v1.14h-9.94v3.8h9.58v1.07h-9.58v4.2h10.02v1.14h-11.39v-11.35Z"/>
      <path class="cls-1" d="m253.68,54.11h9.36c1.72,0,2.52.22,3.11.87.46.51.7,1.38.7,2.6,0,1.84-.43,2.48-1.82,2.81,1.16.22,1.6.82,1.6,2.13v2.94h-1.36v-2.16c.03-1.96-.46-2.43-2.43-2.42h-7.79v4.58h-1.36v-11.35Zm8.83,5.7c2.33,0,2.93-.46,2.93-2.3s-.61-2.26-3.01-2.26h-7.39v4.56h7.47Z"/>
      <path class="cls-1" d="m277.68,61.92v.31c0,1.14.24,1.6.97,1.84.66.22,1.92.32,3.96.32,4.44,0,5.24-.34,5.24-2.23,0-.95-.29-1.38-1.05-1.6-.75-.2-.82-.2-5.89-.24-2.06-.02-2.94-.17-3.64-.63-.68-.46-.95-1.09-.95-2.21,0-1.7.61-2.67,1.96-3.06.97-.29,2.47-.43,4.8-.43,2.62,0,3.97.19,4.75.68.83.51,1.09,1.11,1.14,2.69h-1.33c-.02-.9-.17-1.31-.54-1.6-.53-.41-1.7-.58-4-.58-4.48,0-5.34.36-5.34,2.18,0,.78.22,1.23.7,1.45.6.27,1.11.31,4.32.32,3.61.02,4.39.09,5.21.48.92.44,1.29,1.21,1.29,2.62,0,1.57-.53,2.5-1.65,2.93-.83.31-2.13.43-4.75.43-2.76,0-4.05-.12-4.97-.43-1.02-.36-1.58-1.23-1.58-2.45v-.78h1.36Z"/>
      <path class="cls-1" d="m312.35,55.03c.73.77.9,1.65.9,4.75s-.17,4-.9,4.77c-.87.9-1.74,1.04-6.4,1.04s-5.53-.14-6.4-1.04c-.73-.77-.9-1.65-.9-4.75s.17-4.02.9-4.77c.87-.9,1.74-1.04,6.47-1.04s5.46.15,6.33,1.04Zm-11.69.85c-.48.49-.59,1.31-.59,3.91s.12,3.4.59,3.9c.58.61,1.29.7,5.29.7s4.71-.1,5.29-.7c.48-.49.59-1.31.59-3.9s-.12-3.42-.59-3.91c-.53-.58-1.48-.7-5.23-.7s-4.82.12-5.36.7Z"/>
      <path class="cls-1" d="m323.08,54.11h2.2l10.72,10.38v-10.38h1.36v11.35h-2.19l-10.72-10.38v10.38h-1.36v-11.35Z"/>
      <path class="cls-1" d="m349.21,62.91l-1.5,2.55h-1.51l6.69-11.35h1.92l6.69,11.35h-1.5l-1.5-2.55h-9.29Zm4.65-7.85l-4,6.77h8l-4-6.77Z"/>
    </g>
    <g>
      <path class="cls-1" d="m84.97,9.46h9.16c1.79,0,2.48.17,3.03.75.49.51.68,1.24.68,2.6,0,1.67-.22,2.37-.9,2.91-.56.44-1.28.63-2.5.63h-8.1v4.46h-1.36v-11.35Zm8.46,5.75c2.45,0,3-.43,3-2.31s-.54-2.3-2.72-2.3h-7.37v4.61h7.1Z"/>
      <path class="cls-1" d="m110.29,10.6h-5.77v-1.14h12.88v1.14h-5.75v10.21h-1.36v-10.21Z"/>
    </g>
    <rect class="cls-1" x="125.3" y="14.57" width="236.19" height="1.14"/>
    <rect class="cls-1" x="84.97" y="59.29" width="116.03" height="1.14"/>
    <g>
      <path class="cls-1" d="m89.29,29.03h10.86c1.29,0,1.97.12,2.4.37.6.32.91,1.01.91,1.98,0,.89-.28,1.51-.83,1.84-.48.25-1.14.34-2.92.34h-10.43v-4.53Zm11.37,12.46h-11.37v-4.96h11.09c1.57,0,2.4.12,2.86.37.58.35.89,1.09.89,2.09,0,1.92-.8,2.5-3.46,2.5Zm4.66-6.65c1.81-.4,2.56-1.58,2.56-4.04,0-3.77-1.67-5.09-6.45-5.09h-16.47v19.09h17.3c4.55,0,6.33-1.54,6.33-5.5,0-2.86-.94-4.14-3.27-4.46Z"/>
      <polygon class="cls-1" points="123.46 34.13 123.46 34.13 115.96 25.71 110.26 25.71 118.01 34.13 121.24 34.13 121.24 44.78 125.68 44.78 125.68 34.13 128.83 34.13 136.52 25.71 130.91 25.71 123.46 34.13"/>
      <polygon class="cls-1" points="138.78 29.29 147.77 29.29 147.77 44.81 152.18 44.81 152.18 29.29 161.14 29.29 161.14 25.71 138.78 25.71 138.78 29.29"/>
      <polygon class="cls-1" points="169.05 36.6 184.23 36.6 184.23 33.59 169.05 33.59 169.05 29.07 185.01 29.07 185.01 25.71 164.7 25.71 164.7 44.81 185.17 44.81 185.17 41.46 169.05 41.46 169.05 36.6"/>
      <path class="cls-1" d="m216.99,34.84c1.8-.4,2.55-1.57,2.55-4.04,0-3.77-1.66-5.09-6.45-5.09h-16.47v19.1h17.3c4.55,0,6.33-1.54,6.33-5.5,0-2.86-.95-4.15-3.27-4.47Zm-16.04-5.81h10.86c1.29,0,1.98.12,2.4.37.6.32.92,1.01.92,1.98,0,.89-.29,1.51-.83,1.84-.49.25-1.15.34-2.93.34h-10.43v-4.53Zm11.37,12.46h-11.37v-4.96h11.09c1.57,0,2.41.12,2.87.37.57.35.89,1.09.89,2.09,0,1.92-.8,2.5-3.47,2.5Z"/>
      <polygon class="cls-1" points="229.16 36.6 244.34 36.6 244.34 33.59 229.16 33.59 229.16 29.07 245.11 29.07 245.11 25.71 224.81 25.71 224.81 44.81 245.28 44.81 245.28 41.46 229.16 41.46 229.16 36.6"/>
      <path class="cls-1" d="m300.16,27.41c-1.44-1.55-3.24-1.9-9.99-1.9-3.49,0-6.36.06-7.34.14-2.46.2-3.81.63-4.84,1.55-1.37,1.2-1.8,2.98-1.8,7.45,0,3.12.06,4.15.23,5.41.26,1.9,1.09,3.22,2.35,3.9,1.62.89,3.21,1.06,9.05,1.06,2.67,0,6.13-.06,7.05-.12,2.4-.14,3.83-.6,4.89-1.51,1.46-1.29,1.92-3.12,1.92-7.9,0-2.12-.03-3.15-.11-4.04-.18-1.92-.6-3.16-1.4-4.04Zm-3.76,12.94c-.77.86-2.01,1.07-6.93,1.07-5.47,0-6.38-.09-7.45-.66-1.06-.55-1.35-1.75-1.35-5.47,0-6.07.12-6.15,8.28-6.15s8.31.05,8.31,6.04c0,3.23-.2,4.47-.86,5.18Z"/>
      <polygon class="cls-1" points="327.51 41.61 313.15 25.71 306.31 25.71 306.31 44.81 310.57 44.81 310.49 29.01 324.76 44.81 331.63 44.81 331.63 25.71 327.42 25.71 327.51 41.61"/>
      <path class="cls-1" d="m361.49,34.72c.01-.25,0-.49,0-.72-.02-1.3-.12-2.37-.3-3.27l-.04-.04c-.25-1.3-.67-2.2-1.27-2.88-.65-.71-1.57-1.24-2.8-1.58-1.19-.34-2.68-.51-4.48-.51h-15.87v19.09h15.87c1.8,0,3.29-.17,4.48-.51,1.23-.34,2.15-.87,2.8-1.58.6-.68,1.02-1.58,1.27-2.88l.04-.04c.18-.9.28-1.96.3-3.26,0-.24,0-.48,0-.72.01-.18.01-.36.01-.55v-.22c0-.11,0-.22-.01-.33Zm-9.42,6.49h-10.93v-11.89h10.93c4.02,0,4.91,1.01,4.96,5.95-.05,4.93-.94,5.94-4.96,5.94Z"/>
      <polygon class="cls-1" points="261.27 34.21 261.26 34.21 253.76 25.79 248.06 25.79 255.82 34.21 259.04 34.21 259.04 44.85 263.48 44.85 263.48 34.21 266.63 34.21 274.32 25.79 268.71 25.79 261.27 34.21"/>
    </g>
  </g>
</svg>